<?xml version="1.0" standalone="no"?>
<!DOCTYPE svg PUBLIC "-//W3C//DTD SVG 20010904//EN"
 "http://www.w3.org/TR/2001/REC-SVG-20010904/DTD/svg10.dtd">
<svg version="1.0" xmlns="http://www.w3.org/2000/svg"
 width="1500.000000pt" height="500.000000pt" viewBox="0 0 1500.000000 500.000000"
 preserveAspectRatio="xMidYMid meet">

<g transform="translate(0.000000,500.000000) scale(0.100000,-0.100000)"
fill="#ffffff" stroke="none">
<path d="M2810 4982 c-89 -47 -312 -478 -425 -817 -228 -688 -214 -1425 41
-2120 32 -89 191 -418 508 -1050 l461 -920 45 -22 44 -23 869 0 c854 0 868 0
908 20 52 27 79 72 78 130 0 39 -154 352 -1182 2409 -830 1660 -1190 2370
-1208 2383 -38 29 -97 33 -139 10z"/>
<path d="M1645 2726 c-51 -49 -1268 -2492 -1268 -2547 0 -44 27 -94 66 -123
28 -21 32 -21 900 -24 480 -1 886 0 904 3 47 8 91 51 119 114 246 555 203
1309 -110 1956 -85 176 -156 293 -258 426 -143 188 -191 229 -269 229 -40 0
-53 -5 -84 -34z"/>
<path d="M12220 2557 c-19 -6 -51 -28 -71 -48 -73 -73 -69 -4 -69 -1241 0
-1229 -5 -1145 68 -1186 36 -20 53 -22 191 -22 l151 0 0 908 0 907 890 -897
c673 -678 901 -902 936 -918 129 -63 257 -18 304 106 20 55 20 65 18 1162 l-3
1107 -24 49 c-34 68 -57 76 -236 76 l-145 0 0 -906 0 -906 -890 883 c-648 643
-905 891 -941 912 -56 29 -115 34 -179 14z"/>
<path d="M5800 2533 c-23 -9 -30 -24 -30 -68 0 -37 6 -45 108 -143 59 -58 308
-298 555 -535 246 -237 447 -434 447 -437 0 -4 -273 -271 -607 -595 -335 -323
-614 -598 -621 -611 -10 -20 -10 -29 3 -54 l16 -30 223 0 224 0 512 503 c281
276 515 502 520 502 4 0 240 -226 524 -502 l515 -503 245 0 c242 0 245 0 260
22 9 12 16 32 16 43 0 13 -201 213 -625 619 -344 329 -625 602 -625 606 0 4
257 254 570 555 604 582 599 576 552 618 -16 15 -48 17 -238 17 l-219 0 -463
-456 c-266 -262 -468 -454 -475 -451 -6 3 -221 209 -476 456 l-463 451 -217
-1 c-119 0 -223 -3 -231 -6z"/>
<path d="M9770 2533 c-486 -57 -849 -340 -994 -773 -42 -128 -57 -218 -63
-385 -8 -254 29 -441 132 -651 65 -133 145 -244 251 -344 124 -117 245 -192
406 -248 175 -62 196 -64 647 -69 559 -6 674 9 906 121 338 163 560 458 647
859 31 147 31 418 0 564 -104 482 -417 797 -899 904 -92 21 -127 22 -548 24
-247 2 -466 1 -485 -2z m955 -451 c143 -39 238 -93 341 -196 78 -77 98 -105
138 -186 67 -138 88 -227 90 -385 1 -145 -16 -238 -64 -354 -82 -201 -249
-358 -450 -425 -126 -42 -216 -48 -622 -43 -424 5 -439 7 -598 84 -80 39 -108
59 -185 137 -104 104 -156 193 -201 341 -25 82 -27 105 -27 250 0 145 2 168
26 248 79 257 242 432 477 511 121 40 182 44 600 42 370 -2 400 -4 475 -24z"/>
</g>
</svg>
